{"title":"Shuffle!","uid":9556853,"size":890993258,"categoryP":"video","categoryS":"tv_shows","magnet":"?xt=urn:btih:8359c341ea0b8d04f0ca59255bde96821d8c1280&amp;dn=Shuffle%21&amp;tr=udp%3A%2F%2Ftracker.openbittorrent.com%3A80&amp;tr=udp%3A%2F%2Fopen.demonii.com%3A1337&amp;tr=udp%3A%2F%2Ftracker.coppersurfer.tk%3A6969&amp;tr=udp%3A%2F%2Fexodus.desync.com%3A6969","seeders":1,"leechers":0,"uploader":"p7trick","files":-1,"time":1391370411,"description":"downloaded from justdubs\n\nShuffle! eps 1-24 ENGLISH DUBBED\n_________________________________________________________\n\nFormat                                   : MPEG-4\nFormat profile                           : Base Media\nCodec ID                                 : isom\nFile size                                : 32.3 MiB\nDuration                                 : 24mn 14s\nOverall bit rate mode                    : Variable\nOverall bit rate                         : 186 Kbps\n\nVideo\nID                                       : 1\nFormat                                   : AVC\nFormat/Info                              : Advanced Video Codec\nFormat profile                           : &lt;a class=&quot;__cf_email__&quot; href=&quot;/cdn-cgi/l/email-protection&quot; data-cfemail=&quot;7d35141a153d314e534d&quot;&gt;[email&amp;#160;protected]&lt;/a&gt;&lt;script cf-hash='f9e31' type=&quot;text/javascript&quot;&gt;\n/* &lt;![CDATA[ */!function(){try{var t=&quot;currentScript&quot;in document?document.currentScript:function(){for(var t=document.getElementsByTagName(&quot;script&quot;),e=t.length;e--;)if(t[e].getAttribute(&quot;cf-hash&quot;))return t[e]}();if(t&amp;&amp;t.previousSibling){var e,r,n,i,c=t.previousSibling,a=c.getAttribute(&quot;data-cfemail&quot;);if(a){for(e=&quot;&quot;,r=parseInt(a.substr(0,2),16),n=2;a.length-n;n+=2)i=parseInt(a.substr(n,2),16)^r,e+=String.fromCharCode(i);e=document.createTextNode(e),c.parentNode.replaceChild(e,c)}}}catch(u){}}();/* ]]&gt; */&lt;/script&gt;\nFormat settings, CABAC                   : Yes\nFormat settings, ReFrames                : 8 frames\nCodec ID                                 : avc1\nCodec ID/Info                            : Advanced Video Coding\nDuration                                 : 24mn 13s\nBit rate mode                            : Variable\nBit rate                                 : 119 Kbps\nMaximum bit rate                         : 1 069 Kbps\nWidth                                    : 704 pixels\nHeight                                   : 392 pixels\nDisplay aspect ratio                     : 16:9\nFrame rate mode                          : Constant\nFrame rate                               : 29.970 fps\nColor space                              : YUV\nChroma subsampling                       : 4:2:0\nBit depth                                : 8 bits\nScan type                                : Progressive\nBits/(Pixel*Frame)                       : 0.014\nStream size                              : 20.5 MiB (64%)\n\nAudio\nID                                       : 2\nFormat                                   : AAC\nFormat/Info                              : Advanced Audio Codec\nFormat profile                           : HE-AAC / LC\nCodec ID                                 : 40\nDuration                                 : 24mn 14s\nBit rate mode                            : Variable\nBit rate                                 : 64.0 Kbps\nMaximum bit rate                         : 84.7 Kbps\nChannel count                            : 2 channels\nChannel positions                        : Front: L R\nSampling rate                            : 48.0 KHz / 24.0 KHz\nCompression mode                         : Lossy\nDelay relative to video                  : 67ms\nStream size                              : 11.1 MiB (34%)\nLanguage                                 : English\n_________________________________________________________\n\nSummary:\nWhen two doors are discovered in an ancient ruin, the gateways to shinkai, the realm of the shinzoku (Gods) and makai, the realm of the mazoku (Demons) are irreversably opened. The races of human, shinzoku, and mazoku come together in the mortal world and nothing will ever be the same. One day, two new families move next door to a boy who had previously been living a very peaceful life. In one house lived the family of the King of the Gods, and in the other lived the family of the King of the Demons. Both families had one daughter whose single wish to live next to the boy they had fallen in love with years ago has just been fulfilled. Also living with the boy is his childhood friend. With these three girls vying for his affections, the boy finds that his new life filled with despair, jealousy, and just a little hope is beginning.\n\n\nFor updates/requests:\nTwitter - @p7tricktorrent\nFacebook - /p7tricktorrent\nTPB - /user/p7trick/\nKAT - /user/iPirate7\n_________________________________________________________\n\nSEED!\n\nshare ratio:\n&quot;Scumbag = 0.1:1\nLeecher = 0.999:1\nMinimum = 1:1\nGood = 3:1\nGreat = 5:1\nAwesome = 10:1\n1337 = 100:1&quot;\t\t\t\t","torrent":{"xt":"urn:btih:8359c341ea0b8d04f0ca59255bde96821d8c1280","amp;dn":"Shuffle%21","amp;tr":["udp%3A%2F%2Ftracker.openbittorrent.com%3A80","udp%3A%2F%2Fopen.demonii.com%3A1337","udp%3A%2F%2Ftracker.coppersurfer.tk%3A6969","udp%3A%2F%2Fexodus.desync.com%3A6969"],"infoHash":"8359c341ea0b8d04f0ca59255bde96821d8c1280","infoHashBuffer":{"type":"Buffer","data":[131,89,195,65,234,11,141,4,240,202,89,37,91,222,150,130,29,140,18,128]},"announce":[],"urlList":[]}}